<svg width="33" height="27" viewBox="0 0 33 27" fill="none" xmlns="http://www.w3.org/2000/svg">
<path d="M10.7247 26.9555C22.9765 26.9555 29.6796 16.8025 29.6796 8.00058C29.6796 7.71515 29.6732 7.42338 29.6605 7.13796C30.9645 6.19496 32.0898 5.02692 32.9835 3.68873C31.7691 4.22904 30.4798 4.58191 29.1595 4.7353C30.5496 3.902 31.5905 2.59293 32.0892 1.05075C30.7814 1.82581 29.3512 2.37255 27.8598 2.66754C26.855 1.59985 25.5264 0.892907 24.0795 0.65602C22.6326 0.419133 21.1479 0.665491 19.8551 1.35701C18.5622 2.04852 17.5332 3.14667 16.927 4.48169C16.3209 5.8167 16.1714 7.31421 16.5017 8.74269C13.8536 8.6098 11.2629 7.92189 8.89771 6.72354C6.5325 5.5252 4.44551 3.84318 2.77205 1.78652C1.92151 3.25295 1.66125 4.98821 2.04415 6.63964C2.42705 8.29107 3.42439 9.73474 4.83347 10.6773C3.77562 10.6437 2.74094 10.3589 1.81492 9.84634V9.9288C1.81397 11.4677 2.34599 12.9595 3.32053 14.1505C4.29508 15.3415 5.65201 16.1582 7.16065 16.4619C6.18072 16.73 5.15224 16.7691 4.15479 16.5761C4.5805 17.8995 5.40878 19.0571 6.52403 19.8872C7.63928 20.7172 8.98586 21.1784 10.3758 21.2063C8.01607 23.06 5.10108 24.0654 2.10035 24.0606C1.56819 24.0598 1.03656 24.0272 0.508301 23.9629C3.55672 25.9186 7.10285 26.9574 10.7247 26.9555Z" fill="white"/>
</svg>
